<svg xmlns="http://www.w3.org/2000/svg" viewBox="0 0 386.84 72.79">
<defs>
<style>.cls-1{fill:#fff;}.cls-2{fill:#3e99d4;}</style>
</defs>
<g id="Layer_2" data-name="Layer 2"><g id="Layer_1-2" data-name="Layer 1">
<path class="cls-1" d="M62.09,12.22a31.83,31.83,0,0,1,8,15.27,41.43,41.43,0,0,1,.9,8.15c.1,11.38,0,22.75,0,34.13v1.11a8.34,8.34,0,0,1-5.34-1.75A8.66,8.66,0,0,1,62.1,62.2c0-1,0-2,0-3.23C55.25,66.3,47,70.41,37.15,70.85a34.64,34.64,0,0,1-25.76-9.43A35.49,35.49,0,0,1,3.27,20.56C10.23,5.84,24.55-.31,35.46,0V8.66c-2,.3-4.07.47-6,.91A26.56,26.56,0,1,0,61.25,41.89a27.48,27.48,0,0,0,.8-6.39c.1-7.44,0-14.89,0-22.34Z"/>
<path class="cls-2" d="M44.35,20V1.13a4.11,4.11,0,0,1,.73.12L52.6,4.33a1,1,0,0,1,.67,1.09c0,10.08,0,20.15,0,30.23A17.75,17.75,0,0,1,39.38,52.76,18,18,0,0,1,19.52,43.2C16.14,36.57,17.84,27.88,23,22.83A17.79,17.79,0,0,1,43.4,19.52Zm0,15.46a8.85,8.85,0,1,0-8.86,8.83A8.88,8.88,0,0,0,44.36,35.44Z"/>
<path class="cls-1" d="M83.45,67.3q-5.73-5.49-5.73-15.81t5.61-15.84q5.61-5.46,16-5.46a33.61,33.61,0,0,1,8,.87,19.13,19.13,0,0,1,6,2.49,1.18,1.18,0,0,1,.6,1,1.86,1.86,0,0,1-.36,1l-2.1,3.66q-.42.66-.84.66a2.39,2.39,0,0,1-1-.36,18.18,18.18,0,0,0-9.06-2.16q-6.18,0-9.6,3.57T87.56,51.49q0,7.08,3.57,10.62t9.75,3.54a19.1,19.1,0,0,0,9.48-2.16,2.39,2.39,0,0,1,1-.36q.42,0,.84.66l2.34,4a1.52,1.52,0,0,1,.24.72q0,.36-.72.9-4.68,3.36-14.46,3.36Q89.18,72.79,83.45,67.3Z"/>
<path class="cls-1" d="M125.57,67.21q-5.37-5.58-5.37-15.72t5.37-15.72q5.37-5.58,15.57-5.58t15.51,5.58Q162,41.35,162,51.49t-5.37,15.72q-5.37,5.58-15.51,5.58T125.57,67.21Zm23.82-5.13q2.79-3.57,2.79-10.59T149.39,40.9q-2.79-3.57-8.25-3.57t-8.31,3.57Q130,44.47,130,51.49t2.79,10.59q2.79,3.57,8.31,3.57T149.39,62.08Z"/>
<path class="cls-1" d="M170,71.26a2.66,2.66,0,0,1-.63-2V33.67a2.66,2.66,0,0,1,.63-2,3,3,0,0,1,2.13-.63h4.44a4.2,4.2,0,0,1,1.68.27,2,2,0,0,1,1,1l10.38,24.48L200,32.41a2,2,0,0,1,1-1,4.2,4.2,0,0,1,1.68-.27h4.44a3,3,0,0,1,2.13.63,2.66,2.66,0,0,1,.63,2V69.31a2.66,2.66,0,0,1-.63,2,2.85,2.85,0,0,1-2.07.63h-3.66a3,3,0,0,1-2.13-.63,2.66,2.66,0,0,1-.63-2V46.63l-8,17.94a5.71,5.71,0,0,1-1.17,1.77,2.92,2.92,0,0,1-1.95.51,3.07,3.07,0,0,1-1.95-.51,4.58,4.58,0,0,1-1.17-1.77l-8-17.94V69.31a2.66,2.66,0,0,1-.63,2,3,3,0,0,1-2.13.63H172A2.85,2.85,0,0,1,170,71.26Z"/>
<path class="cls-1" d="M221.09,71.26a2.66,2.66,0,0,1-.63-2V33.73a2.31,2.31,0,0,1,2.7-2.64h15q15.42,0,15.42,13.8T238.16,58.63h-7.8V69.31a2.74,2.74,0,0,1-.6,2,2.83,2.83,0,0,1-2.1.63h-4.5A2.85,2.85,0,0,1,221.09,71.26ZM237.5,51.37q6.24,0,6.24-6.48t-6.24-6.48h-7.08v13Z"/>
<path class="cls-1" d="M254.66,70.87a3.08,3.08,0,0,1,.18-1l15.54-37a3.37,3.37,0,0,1,.93-1.41,2.38,2.38,0,0,1,1.47-.39h4.38a2.25,2.25,0,0,1,1.44.39,3.56,3.56,0,0,1,.9,1.41l15.54,37a3.08,3.08,0,0,1,.18,1q0,1-1.08,1h-7.26A1.69,1.69,0,0,1,285,70.63l-2.76-7.08H267.62l-2.7,7.08A1.69,1.69,0,0,1,263,71.89h-7.26Q254.66,71.89,254.66,70.87Zm25.26-14.22-5-13-5,13Z"/>
<path class="cls-1" d="M305.33,71.26a2.66,2.66,0,0,1-.63-2V33.67a2.66,2.66,0,0,1,.63-2,3,3,0,0,1,2.13-.63h3.72a3.38,3.38,0,0,1,1.53.27,3.75,3.75,0,0,1,1.11,1l16.8,23.7V33.73a2.31,2.31,0,0,1,2.7-2.64h4.5a2.83,2.83,0,0,1,2.1.63,2.84,2.84,0,0,1,.6,2V69.31a2.74,2.74,0,0,1-.6,2,2.83,2.83,0,0,1-2.1.63H334a3.21,3.21,0,0,1-1.47-.27,3.75,3.75,0,0,1-1.11-1.05L314.6,46.93V69.31a2.74,2.74,0,0,1-.6,2,2.83,2.83,0,0,1-2.1.63h-4.5A2.85,2.85,0,0,1,305.33,71.26Z"/>
<path class="cls-1" d="M362.69,71.26a2.66,2.66,0,0,1-.63-2V58l-14.52-24.9a1.8,1.8,0,0,1-.3-1,.94.94,0,0,1,.33-.72,1.24,1.24,0,0,1,.87-.3h7.2a2,2,0,0,1,1.2.27,2.88,2.88,0,0,1,.72.93L367,48.91l9.48-16.62a2.88,2.88,0,0,1,.72-.93,1.91,1.91,0,0,1,1.14-.27h7.26a1.24,1.24,0,0,1,.87.3.94.94,0,0,1,.33.72,1.8,1.8,0,0,1-.3,1L372,58V69.31a2.66,2.66,0,0,1-.63,2,3,3,0,0,1-2.13.63h-4.5A2.85,2.85,0,0,1,362.69,71.26Z"/>
</g>
</g>
</svg>