<svg width="92" height="52" viewBox="0 0 92 52" fill="none" xmlns="http://www.w3.org/2000/svg">
<g id="Layer_1" clip-path="url(#clip0_261_4217)">
<g id="Page-1">
<g id="Group">
<path id="Path" d="M37.8194 24.8782C37.8194 24.8782 35.15 27.9209 35.6718 28.8554C36.1936 29.7899 54.5131 23.3758 52.3698 10.2375C50.6807 4.45361 46.9878 0.956055 46.9878 0.956055C46.9878 0.956055 50.905 11.5429 39.9943 20.1405C29.1053 28.7221 32.4518 18.0642 32.4518 18.0642C27.133 25.4245 24.4995 31.217 23.5508 35.7679C25.0688 32.3095 28.7761 27.6224 37.8194 24.8782Z" fill="#475467"/>
<path id="Path_2" d="M31.6087 32.663C31.6087 32.663 28.8242 36.4532 28.9982 37.7456C28.9982 37.7456 34.1042 33.6511 40.6031 33.1252C43.215 32.9281 45.7033 31.9299 47.7345 30.2651C48.4518 29.5856 49.08 28.8163 49.6033 27.9774C53.7936 21.0054 53.7303 14.884 52.3748 10.2375C54.5123 23.3758 36.1871 29.7885 35.671 28.8554C35.155 27.9223 37.8187 24.8783 37.8187 24.8783C28.7753 27.6224 25.068 32.3095 23.55 35.7679C22.7795 39.464 23.1188 42.3385 24.033 44.5698C23.6995 41.4967 24.3047 36.0461 31.6087 32.663Z" fill="#475467"/>
<path id="Path_3" d="M33.3503 51.9561C23.0607 42.1139 40.6025 37.2515 47.7354 30.2637C45.7042 31.9284 43.2144 32.9252 40.6039 33.1208C34.105 33.6468 28.999 37.7413 28.999 37.7413C28.825 36.4532 31.6095 32.6586 31.6095 32.6586C24.3055 36.0417 23.7032 41.4967 24.0339 44.5654C26.538 50.6941 33.3503 51.9561 33.3503 51.9561Z" fill="#475467"/>
<path id="Path_4" d="M25.0789 26.1112C27.5226 12.5021 19.4827 15.5258 16.8506 16.8385C16.7342 16.9747 16.6738 17.0558 16.6738 17.0558C28.0502 13.1077 18.4851 29.9507 18.4851 29.9507C11.565 47.3197 26.7105 51.0071 26.7105 51.0071C18.6475 44.038 21.327 33.6801 25.0789 26.1112Z" fill="#475467"/>
<path id="Path_5" d="M25.0798 26.1112C26.7976 22.6658 28.8662 19.4102 31.2524 16.3966C29.9745 17.5079 28.5212 17.5673 26.7114 16.1633C21.4703 12.1065 17.6939 15.862 16.8516 16.8371C19.4836 15.5258 27.5279 12.5021 25.0798 26.1112Z" fill="#475467"/>
<g id="Shape">
<path id="path-7" d="M5.79117 51.8112C8.05955 51.8112 9.8938 50.7274 10.8742 48.9482H10.9705V51.5359H15.6682V39.6509C15.6682 36.1577 12.7889 33.8453 8.33267 33.8453C3.87642 33.8453 1.04455 36.1417 0.787234 39.3437L0.771422 39.5379H5.06667L5.0983 39.393C5.32398 38.2774 6.38486 37.4529 8.13861 37.4529C9.89236 37.4529 10.9705 38.4077 10.9705 39.9435V41.0114L6.70686 41.2707C2.42742 41.546 -0.00195312 43.3889 -0.00195312 46.5431V46.575C-0.00195312 49.6306 2.33111 51.8141 5.78973 51.8141L5.79117 51.8112ZM4.64836 46.3287V46.2968C4.64836 45.0682 5.59711 44.2916 7.41555 44.1786L10.9705 43.9526V45.1971C10.9705 47.0082 9.42661 48.3672 7.31923 48.3672C5.69486 48.3672 4.64836 47.6066 4.64836 46.3301V46.3287Z" fill="#475467"/>
<path id="path-7_2" d="M5.79117 51.8112C8.05955 51.8112 9.8938 50.7274 10.8742 48.9482H10.9705V51.5359H15.6682V39.6509C15.6682 36.1577 12.7889 33.8453 8.33267 33.8453C3.87642 33.8453 1.04455 36.1417 0.787234 39.3437L0.771422 39.5379H5.06667L5.0983 39.393C5.32398 38.2774 6.38486 37.4529 8.13861 37.4529C9.89236 37.4529 10.9705 38.4077 10.9705 39.9435V41.0114L6.70686 41.2707C2.42742 41.546 -0.00195312 43.3889 -0.00195312 46.5431V46.575C-0.00195312 49.6306 2.33111 51.8141 5.78973 51.8141L5.79117 51.8112ZM4.64836 46.3287V46.2968C4.64836 45.0682 5.59711 44.2916 7.41555 44.1786L10.9705 43.9526V45.1971C10.9705 47.0082 9.42661 48.3672 7.31923 48.3672C5.69486 48.3672 4.64836 47.6066 4.64836 46.3301V46.3287Z" fill="#475467"/>
</g>
<g id="Shape_2">
<path id="path-9" d="M47.1147 51.9561C49.6073 51.9561 51.5034 50.6912 52.4205 48.6309H52.5168V51.5996H57.2117V28.1947H52.5168V37.2284H52.4205C51.4876 35.1203 49.5585 33.8554 47.1147 33.8554C42.7735 33.8554 40.1055 37.2284 40.1055 42.8891V42.905C40.1055 48.5498 42.7749 51.9561 47.1147 51.9561ZM48.6902 48.0311C46.3428 48.0311 44.8794 46.0679 44.8794 42.9065V42.8905C44.8794 39.7117 46.3586 37.7818 48.6902 37.7818C51.0218 37.7818 52.5327 39.761 52.5327 42.8905V42.9065C52.5327 46.0534 50.973 48.0311 48.6902 48.0311Z" fill="#475467"/>
<path id="path-9_2" d="M47.1147 51.9561C49.6073 51.9561 51.5034 50.6912 52.4205 48.6309H52.5168V51.5996H57.2117V28.1947H52.5168V37.2284H52.4205C51.4876 35.1203 49.5585 33.8554 47.1147 33.8554C42.7735 33.8554 40.1055 37.2284 40.1055 42.8891V42.905C40.1055 48.5498 42.7749 51.9561 47.1147 51.9561ZM48.6902 48.0311C46.3428 48.0311 44.8794 46.0679 44.8794 42.9065V42.8905C44.8794 39.7117 46.3586 37.7818 48.6902 37.7818C51.0218 37.7818 52.5327 39.761 52.5327 42.8905V42.9065C52.5327 46.0534 50.973 48.0311 48.6902 48.0311Z" fill="#475467"/>
</g>
<g id="Shape_3">
<path id="path-11" d="M66.8532 51.9561C71.7838 51.9561 74.1686 49.0192 74.7005 46.4547L74.7493 46.2765H70.4311L70.3995 46.3736C70.0617 47.3472 68.8843 48.4179 66.9509 48.4179C64.5503 48.4179 63.0524 46.7952 63.0035 44.0206H74.8945V42.5602C74.8945 37.3023 71.7205 33.8453 66.6605 33.8453C61.6005 33.8453 58.3633 37.3834 58.3633 42.9166V42.9325C58.3633 48.4991 61.5703 51.9561 66.8546 51.9561H66.8532ZM66.741 37.3834C68.6903 37.3834 70.0918 38.6323 70.3822 41.0345H63.051C63.3572 38.6816 64.8076 37.3834 66.741 37.3834Z" fill="#475467"/>
<path id="path-11_2" d="M66.8532 51.9561C71.7838 51.9561 74.1686 49.0192 74.7005 46.4547L74.7493 46.2765H70.4311L70.3995 46.3736C70.0617 47.3472 68.8843 48.4179 66.9509 48.4179C64.5503 48.4179 63.0524 46.7952 63.0035 44.0206H74.8945V42.5602C74.8945 37.3023 71.7205 33.8453 66.6605 33.8453C61.6005 33.8453 58.3633 37.3834 58.3633 42.9166V42.9325C58.3633 48.4991 61.5703 51.9561 66.8546 51.9561H66.8532ZM66.741 37.3834C68.6903 37.3834 70.0918 38.6323 70.3822 41.0345H63.051C63.3572 38.6816 64.8076 37.3834 66.741 37.3834Z" fill="#475467"/>
</g>
<g id="Path_6">
<path id="path-13" d="M76.0425 51.5214H80.7244V41.5692C80.7244 39.3075 82.0555 37.7558 84.1557 37.7558C86.2559 37.7558 87.3153 39.0481 87.3153 41.3098V51.5214H91.9973V40.3405C91.9973 36.2852 89.8482 33.8453 86.0633 33.8453C83.4657 33.8453 81.7019 35.0565 80.8193 37.0444H80.723V34.2002H76.041V51.5214H76.0425Z" fill="#475467"/>
<path id="path-13_2" d="M76.0425 51.5214H80.7244V41.5692C80.7244 39.3075 82.0555 37.7558 84.1557 37.7558C86.2559 37.7558 87.3153 39.0481 87.3153 41.3098V51.5214H91.9973V40.3405C91.9973 36.2852 89.8482 33.8453 86.0633 33.8453C83.4657 33.8453 81.7019 35.0565 80.8193 37.0444H80.723V34.2002H76.041V51.5214H76.0425Z" fill="#475467"/>
</g>
</g>
</g>
</g>
<defs>
<clipPath id="clip0_261_4217">
<rect width="92" height="51" fill="white" transform="translate(0 0.956055)"/>
</clipPath>
</defs>
</svg>
