<svg width="102" height="56" viewBox="0 0 102 56" fill="none" xmlns="http://www.w3.org/2000/svg">
<g id="Layer_1" clip-path="url(#clip0_261_3359)">
<g id="Page-1">
<g id="Group">
<path id="Path" d="M42.018 26.2675C42.018 26.2675 39.0874 29.6084 39.6603 30.6345C40.2331 31.6607 60.3447 24.6177 57.9918 10.1914C56.1375 3.84045 52.0833 0 52.0833 0C52.0833 0 56.3837 11.6248 44.4057 21.0652C32.4514 30.4882 36.1253 18.7855 36.1253 18.7855C30.2862 26.8673 27.3951 33.2277 26.3535 38.2248C28.02 34.4273 32.09 29.2807 42.018 26.2675Z" fill="white"/>
<path id="Path_2" d="M35.2005 34.8155C35.2005 34.8155 32.1437 38.9773 32.3346 40.3964C32.3346 40.3964 37.9401 35.9005 45.0748 35.323C47.9423 35.1066 50.674 34.0105 52.9039 32.1825C53.6914 31.4364 54.381 30.5916 54.9555 29.6705C59.5557 22.015 59.4863 15.2935 57.9981 10.1914C60.3448 24.6178 40.2268 31.6591 39.6603 30.6346C39.0937 29.61 42.018 26.2675 42.018 26.2675C32.09 29.2807 28.02 34.4273 26.3535 38.2248C25.5076 42.2832 25.8801 45.4396 26.8838 47.8896C26.5176 44.5153 27.182 38.5303 35.2005 34.8155Z" fill="white"/>
<path id="Path_3" d="M37.1122 56.0002C25.816 45.1932 45.0738 39.8541 52.9045 32.1812C50.6746 34.0091 47.9413 35.1037 45.0754 35.3184C37.9407 35.8959 32.3352 40.3918 32.3352 40.3918C32.1442 38.9775 35.2011 34.8109 35.2011 34.8109C27.1826 38.5257 26.5214 44.5155 26.8844 47.885C29.6334 54.6146 37.1122 56.0002 37.1122 56.0002Z" fill="white"/>
<path id="Path_4" d="M28.0339 27.6212C30.7168 12.6778 21.8903 15.9981 19.0008 17.4394C18.8729 17.589 18.8066 17.6781 18.8066 17.6781C31.2959 13.3428 20.7951 31.8371 20.7951 31.8371C13.198 50.909 29.8251 54.9578 29.8251 54.9578C20.9734 47.3056 23.915 35.9321 28.0339 27.6212Z" fill="white"/>
<path id="Path_5" d="M28.0332 27.6216C29.919 23.8384 32.19 20.2637 34.8097 16.9546C33.4067 18.1748 31.8112 18.24 29.8244 16.6984C24.0705 12.2439 19.9248 16.3675 19 17.4382C21.8895 15.9984 30.7207 12.6782 28.0332 27.6216Z" fill="white"/>
<g id="Shape">
<path id="path-7" d="M6.85789 55.841C9.34817 55.841 11.3619 54.651 12.4381 52.6974H12.5439V55.5388H17.7012V42.4885C17.7012 38.6529 14.5402 36.1138 9.64802 36.1138C4.75583 36.1138 1.64692 38.6354 1.36444 42.1513L1.34708 42.3645H6.06252L6.09723 42.2054C6.345 40.9804 7.50966 40.0751 9.43497 40.0751C11.3603 40.0751 12.5439 41.1235 12.5439 42.8099V43.9824L7.86316 44.2672C3.16508 44.5695 0.498047 46.5931 0.498047 50.0565V50.0915C0.498047 53.4467 3.05934 55.8442 6.85631 55.8442L6.85789 55.841ZM5.60328 49.821V49.786C5.60328 48.437 6.64484 47.5842 8.64117 47.4601L12.5439 47.212V48.5785C12.5439 50.5672 10.849 52.0595 8.53544 52.0595C6.75216 52.0595 5.60328 51.2242 5.60328 49.8226V49.821Z" fill="white"/>
<path id="path-7_2" d="M6.85789 55.841C9.34817 55.841 11.3619 54.651 12.4381 52.6974H12.5439V55.5388H17.7012V42.4885C17.7012 38.6529 14.5402 36.1138 9.64802 36.1138C4.75583 36.1138 1.64692 38.6354 1.36444 42.1513L1.34708 42.3645H6.06252L6.09723 42.2054C6.345 40.9804 7.50966 40.0751 9.43497 40.0751C11.3603 40.0751 12.5439 41.1235 12.5439 42.8099V43.9824L7.86316 44.2672C3.16508 44.5695 0.498047 46.5931 0.498047 50.0565V50.0915C0.498047 53.4467 3.05934 55.8442 6.85631 55.8442L6.85789 55.841ZM5.60328 49.821V49.786C5.60328 48.437 6.64484 47.5842 8.64117 47.4601L12.5439 47.212V48.5785C12.5439 50.5672 10.849 52.0595 8.53544 52.0595C6.75216 52.0595 5.60328 51.2242 5.60328 49.8226V49.821Z" fill="white"/>
</g>
<g id="Shape_2">
<path id="path-9" d="M52.2242 56.0001C54.9607 56.0001 57.0423 54.6112 58.0491 52.3489H58.1548V55.6087H63.309V29.9092H58.1548V39.8285H58.0491C57.0249 37.5137 54.907 36.1249 52.2242 36.1249C47.4583 36.1249 44.5293 39.8285 44.5293 46.0442V46.0617C44.5293 52.2599 47.4599 56.0001 52.2242 56.0001ZM53.9539 51.6903C51.3768 51.6903 49.7702 49.5346 49.7702 46.0633V46.0458C49.7702 42.5553 51.3941 40.4362 53.9539 40.4362C56.5136 40.4362 58.1722 42.6094 58.1722 46.0458V46.0633C58.1722 49.5187 56.4599 51.6903 53.9539 51.6903Z" fill="white"/>
<path id="path-9_2" d="M52.2242 56.0001C54.9607 56.0001 57.0423 54.6112 58.0491 52.3489H58.1548V55.6087H63.309V29.9092H58.1548V39.8285H58.0491C57.0249 37.5137 54.907 36.1249 52.2242 36.1249C47.4583 36.1249 44.5293 39.8285 44.5293 46.0442V46.0617C44.5293 52.2599 47.4599 56.0001 52.2242 56.0001ZM53.9539 51.6903C51.3768 51.6903 49.7702 49.5346 49.7702 46.0633V46.0458C49.7702 42.5553 51.3941 40.4362 53.9539 40.4362C56.5136 40.4362 58.1722 42.6094 58.1722 46.0458V46.0633C58.1722 49.5187 56.4599 51.6903 53.9539 51.6903Z" fill="white"/>
</g>
<g id="Shape_3">
<path id="path-11" d="M73.8927 56.0001C79.3056 56.0001 81.9237 52.7754 82.5077 49.9595L82.5613 49.7638H77.8206L77.7859 49.8704C77.415 50.9395 76.1226 52.1151 74 52.1151C71.3645 52.1151 69.7201 50.3333 69.6665 47.2867H82.7207V45.6831C82.7207 39.9097 79.2362 36.1138 73.6812 36.1138C68.1262 36.1138 64.5723 39.9988 64.5723 46.0744V46.092C64.5723 52.2042 68.0931 56.0001 73.8942 56.0001H73.8927ZM73.7696 39.9988C75.9095 39.9988 77.4482 41.3701 77.767 44.0079H69.7185C70.0547 41.4242 71.647 39.9988 73.7696 39.9988Z" fill="white"/>
<path id="path-11_2" d="M73.8927 56.0001C79.3056 56.0001 81.9237 52.7754 82.5077 49.9595L82.5613 49.7638H77.8206L77.7859 49.8704C77.415 50.9395 76.1226 52.1151 74 52.1151C71.3645 52.1151 69.7201 50.3333 69.6665 47.2867H82.7207V45.6831C82.7207 39.9097 79.2362 36.1138 73.6812 36.1138C68.1262 36.1138 64.5723 39.9988 64.5723 46.0744V46.092C64.5723 52.2042 68.0931 56.0001 73.8942 56.0001H73.8927ZM73.7696 39.9988C75.9095 39.9988 77.4482 41.3701 77.767 44.0079H69.7185C70.0547 41.4242 71.647 39.9988 73.7696 39.9988Z" fill="white"/>
</g>
<g id="Path_6">
<path id="path-13" d="M83.982 55.5229H89.122V44.5949C89.122 42.1115 90.5833 40.4076 92.889 40.4076C95.1946 40.4076 96.3577 41.8267 96.3577 44.3101V55.5229H101.498V43.2458C101.498 38.7929 99.1384 36.1138 94.9832 36.1138C92.1315 36.1138 90.1951 37.4438 89.2262 39.6265H89.1204V36.5035H83.9805V55.5229H83.982Z" fill="white"/>
<path id="path-13_2" d="M83.982 55.5229H89.122V44.5949C89.122 42.1115 90.5833 40.4076 92.889 40.4076C95.1946 40.4076 96.3577 41.8267 96.3577 44.3101V55.5229H101.498V43.2458C101.498 38.7929 99.1384 36.1138 94.9832 36.1138C92.1315 36.1138 90.1951 37.4438 89.2262 39.6265H89.1204V36.5035H83.9805V55.5229H83.982Z" fill="white"/>
</g>
</g>
</g>
</g>
<defs>
<clipPath id="clip0_261_3359">
<rect width="101" height="56" fill="white" transform="translate(0.5)"/>
</clipPath>
</defs>
</svg>
